<?xml version="1.0" standalone="no"?>
<!DOCTYPE svg PUBLIC "-//W3C//DTD SVG 20010904//EN"
 "http://www.w3.org/TR/2001/REC-SVG-20010904/DTD/svg10.dtd">
<svg version="1.0" xmlns="http://www.w3.org/2000/svg"
 width="323.000000pt" height="134.000000pt" viewBox="0 0 323.000000 134.000000"
 preserveAspectRatio="xMidYMid meet">

<g transform="translate(0.000000,134.000000) scale(0.100000,-0.100000)"
fill="#000000" stroke="none">
<path d="M239 1293 c-14 -37 -7 -130 13 -170 10 -19 12 -35 7 -39 -35 -22 -92
-205 -71 -226 19 -19 37 8 57 85 9 37 26 78 35 90 l18 22 6 -25 c3 -14 7 -63
8 -110 3 -74 5 -85 22 -88 10 -2 22 2 27 10 13 20 10 168 -5 208 -11 32 -10
38 11 66 28 37 53 107 53 145 0 40 -37 41 -46 2 -10 -50 -35 -111 -49 -123
-21 -17 -29 5 -35 95 -4 66 -8 80 -22 83 -12 2 -22 -6 -29 -25z"/>
<path d="M1962 1303 c-13 -33 -7 -147 10 -178 15 -29 15 -31 -8 -58 -23 -27
-64 -145 -64 -186 0 -17 5 -22 22 -19 18 2 25 15 38 69 10 36 25 80 36 98 16
27 20 29 26 14 3 -10 7 -60 7 -111 1 -76 4 -94 17 -99 11 -4 22 1 30 12 19 26
18 165 0 210 -14 33 -14 36 9 61 45 49 71 171 38 182 -13 4 -24 -17 -42 -83
-6 -22 -20 -51 -30 -65 l-20 -25 -10 28 c-6 16 -11 60 -11 98 0 63 -2 69 -20
69 -11 0 -24 -8 -28 -17z"/>
<path d="M570 1276 c114 -12 142 -24 184 -78 36 -48 48 -84 56 -168 l7 -75 1
75 c1 84 -13 133 -52 185 -45 59 -90 75 -203 74 l-98 -2 105 -11z"/>
<path d="M2275 1280 c121 -7 133 -11 187 -67 47 -48 59 -80 68 -173 l7 -75 1
75 c2 84 -19 144 -66 193 -48 50 -71 57 -194 55 l-113 -1 110 -7z"/>
<path d="M1245 1164 c56 -109 105 -183 90 -139 -9 30 -103 197 -126 225 -12
14 5 -25 36 -86z"/>
<path d="M505 1250 c3 -5 38 -10 76 -10 122 0 172 -45 204 -183 l14 -62 -5 59
c-7 73 -17 99 -50 140 -43 51 -80 65 -167 66 -50 0 -76 -4 -72 -10z"/>
<path d="M1544 1228 c-37 -39 -86 -103 -139 -178 -31 -44 -34 -50 -12 -31 33
30 35 20 5 -22 -38 -53 -3 -21 54 50 73 91 136 181 116 165 -9 -7 -45 -49 -79
-93 -34 -43 -65 -77 -67 -74 -3 2 13 26 35 52 46 56 125 163 120 163 -2 0 -17
-15 -33 -32z"/>
<path d="M2265 1250 c61 -3 119 -11 131 -17 46 -26 92 -90 103 -145 17 -89 20
-96 15 -29 -6 68 -22 110 -58 149 -40 45 -68 52 -188 50 l-113 -1 110 -7z"/>
<path d="M505 1221 c-33 -6 -23 -8 55 -12 79 -3 100 -8 128 -27 43 -31 62 -71
72 -151 l7 -66 2 61 c1 74 -32 150 -80 178 -34 20 -122 28 -184 17z"/>
<path d="M2277 1216 c147 -17 189 -55 204 -185 l8 -66 -3 76 c-3 85 -21 127
-69 163 -24 18 -44 21 -135 23 l-107 1 102 -12z"/>
<path d="M1190 1216 c0 -13 99 -198 121 -226 l19 -25 -9 27 c-18 50 -131 243
-131 224z"/>
<path d="M1612 1195 c0 -16 2 -22 5 -12 2 9 2 23 0 30 -3 6 -5 -1 -5 -18z"/>
<path d="M1711 1204 c0 -11 3 -14 6 -6 3 7 2 16 -1 19 -3 4 -6 -2 -5 -13z"/>
<path d="M1142 1180 c0 -19 2 -27 5 -17 2 9 2 25 0 35 -3 9 -5 1 -5 -18z"/>
<path d="M1661 1194 c0 -11 3 -14 6 -6 3 7 2 16 -1 19 -3 4 -6 -2 -5 -13z"/>
<path d="M2752 1185 c0 -16 2 -22 5 -12 2 9 2 23 0 30 -3 6 -5 -1 -5 -18z"/>
<path d="M2802 1180 c0 -19 2 -27 5 -17 2 9 2 25 0 35 -3 9 -5 1 -5 -18z"/>
<path d="M2852 1180 c0 -19 2 -27 5 -17 2 9 2 25 0 35 -3 9 -5 1 -5 -18z"/>
<path d="M2902 1180 c0 -19 2 -27 5 -17 2 9 2 25 0 35 -3 9 -5 1 -5 -18z"/>
<path d="M500 1191 c-51 -6 -47 -7 47 -11 91 -5 104 -8 128 -30 35 -33 55 -73
65 -129 l8 -46 1 45 c1 54 -31 125 -71 153 -30 22 -93 28 -178 18z"/>
<path d="M1042 1175 c0 -16 2 -22 5 -12 2 9 2 23 0 30 -3 6 -5 -1 -5 -18z"/>
<path d="M1092 1175 c0 -16 2 -22 5 -12 2 9 2 23 0 30 -3 6 -5 -1 -5 -18z"/>
<path d="M2205 1189 c22 -4 64 -8 93 -8 93 -1 136 -40 158 -141 12 -52 12 -53
13 -17 1 56 -35 133 -74 157 -27 17 -48 20 -131 19 -80 -1 -91 -3 -59 -10z"/>
<path d="M992 1160 c0 -19 2 -27 5 -17 2 9 2 25 0 35 -3 9 -5 1 -5 -18z"/>
<path d="M1732 1160 c0 -19 2 -27 5 -17 2 9 2 25 0 35 -3 9 -5 1 -5 -18z"/>
<path d="M1632 1150 c0 -19 2 -27 5 -17 2 9 2 25 0 35 -3 9 -5 1 -5 -18z"/>
<path d="M1682 1155 c0 -16 2 -22 5 -12 2 9 2 23 0 30 -3 6 -5 -1 -5 -18z"/>
<path d="M480 1160 c-49 -6 -45 -7 40 -8 138 -3 177 -31 191 -137 l6 -50 2 48
c2 97 -53 158 -139 155 -25 -1 -70 -4 -100 -8z"/>
<path d="M1107 1118 c-3 -29 -20 -172 -37 -318 -16 -146 -29 -276 -29 -290 2
-31 25 119 35 218 3 40 9 71 11 68 3 -3 -3 -80 -12 -171 -9 -92 -15 -169 -12
-171 2 -2 13 67 25 153 12 87 19 129 17 93 -2 -36 -6 -99 -9 -140 l-5 -75 14
90 c20 126 67 574 62 588 -2 7 -12 -59 -22 -145 -10 -87 -21 -156 -23 -153 -3
2 1 61 8 130 6 70 10 128 7 131 -2 3 -10 -47 -17 -111 -7 -63 -15 -113 -18
-110 -3 2 1 61 8 130 6 70 10 128 7 131 -2 2 -7 -19 -10 -48z m-10 -290 c-2
-13 -4 -3 -4 22 0 25 2 35 4 23 2 -13 2 -33 0 -45z m20 -40 c-2 -13 -4 -3 -4
22 0 25 2 35 4 23 2 -13 2 -33 0 -45z"/>
<path d="M1534 1132 c-51 -61 -174 -224 -174 -230 0 -3 9 3 20 13 26 23 26 11
-1 -26 -11 -16 -18 -29 -15 -29 7 0 115 134 161 200 32 45 34 51 12 31 -33
-30 -35 -20 -3 22 47 65 48 77 0 19z m-75 -136 c-29 -36 -54 -64 -56 -62 -2 2
19 34 48 70 29 36 55 64 57 62 2 -3 -20 -34 -49 -70z"/>
<path d="M1582 1140 c0 -19 2 -27 5 -17 2 9 2 25 0 35 -3 9 -5 1 -5 -18z"/>
<path d="M2195 1160 c11 -5 49 -9 83 -9 103 -1 140 -33 152 -131 l7 -55 2 53
c1 60 -16 100 -55 131 -23 18 -40 21 -118 20 -60 0 -84 -3 -71 -9z"/>
<path d="M2711 1074 c-53 -429 -80 -750 -40 -474 18 127 19 120 4 -90 l-4 -65
9 52 c14 76 70 582 69 618 -1 17 -12 -44 -24 -135 -27 -195 -31 -183 -10 25
18 168 15 220 -4 69z m-14 -326 c-2 -13 -4 -3 -4 22 0 25 2 35 4 23 2 -13 2
-33 0 -45z"/>
<path d="M2747 950 c-35 -290 -49 -436 -45 -457 2 -10 12 55 23 144 10 90 21
161 23 158 2 -2 -4 -79 -13 -170 -9 -92 -15 -169 -12 -171 5 -5 7 10 48 371
34 303 37 396 4 150 -27 -199 -32 -182 -10 30 9 81 14 152 12 158 -2 6 -16
-90 -30 -213z"/>
<path d="M2811 1073 c-31 -249 -61 -531 -60 -563 1 -19 12 39 24 130 26 193
31 185 10 -15 -18 -168 -17 -214 1 -90 23 158 66 554 62 577 -2 13 -12 -50
-23 -140 -11 -90 -21 -159 -23 -152 -2 6 4 85 13 176 18 180 16 233 -4 77z"/>
<path d="M2867 1123 c-3 -26 -19 -171 -36 -322 -18 -151 -30 -286 -29 -300 2
-14 12 48 23 139 11 91 21 158 23 149 2 -9 -4 -83 -13 -164 -16 -155 -18 -228
-4 -135 19 127 70 596 67 619 -2 14 -12 -48 -23 -138 -10 -90 -21 -159 -23
-152 -2 7 4 86 13 177 10 91 15 167 13 170 -3 2 -8 -17 -11 -43z"/>
<path d="M1013 1125 c0 -22 2 -30 4 -17 2 12 2 30 0 40 -3 9 -5 -1 -4 -23z"/>
<path d="M1063 1125 c0 -22 2 -30 4 -17 2 12 2 30 0 40 -3 9 -5 -1 -4 -23z"/>
<path d="M1190 1156 c0 -13 98 -197 121 -226 l19 -25 -18 40 c-39 87 -121 229
-122 211z"/>
<path d="M1683 1000 c-13 -91 -20 -133 -18 -95 15 221 15 217 0 115 -23 -157
-57 -477 -53 -497 2 -10 13 56 23 147 11 91 21 158 23 149 2 -9 -4 -83 -13
-164 -16 -155 -18 -228 -4 -135 18 118 70 603 67 623 -2 12 -13 -52 -25 -143z"/>
<path d="M1648 1105 c-3 -27 -20 -173 -37 -324 -18 -151 -30 -284 -29 -295 2
-12 16 80 30 204 38 311 50 438 45 452 -2 7 -6 -9 -9 -37z"/>
<path d="M1753 1115 c0 -22 2 -30 4 -17 2 12 2 30 0 40 -3 9 -5 -1 -4 -23z"/>
<path d="M1582 985 c-12 -88 -19 -131 -17 -95 15 211 15 218 5 165 -15 -82
-62 -514 -58 -538 2 -12 12 51 23 140 10 90 21 161 23 158 2 -2 -4 -81 -13
-175 -9 -94 -15 -173 -13 -175 8 -9 82 648 75 668 -2 6 -13 -61 -25 -148z"/>
<path d="M2185 1130 c-21 -5 -2 -8 62 -9 106 -1 132 -16 157 -86 17 -46 21
-27 6 27 -17 58 -50 78 -129 77 -36 -1 -79 -5 -96 -9z"/>
<path d="M490 1120 c73 -6 63 -18 -20 -23 -34 -2 -18 -4 41 -5 116 -2 138 -15
149 -83 l7 -44 2 37 c1 46 -15 83 -43 96 -15 8 -17 11 -5 11 23 1 49 -31 64
-81 16 -51 20 -30 4 25 -19 70 -34 77 -156 75 -97 -1 -101 -2 -43 -8z"/>
<path d="M1068 1015 l-16 -120 5 95 c3 52 3 93 0 90 -8 -7 -69 -566 -65 -587
2 -10 14 70 27 177 24 213 28 238 30 199 0 -14 -8 -106 -19 -205 -11 -98 -19
-188 -19 -199 2 -37 19 79 49 349 32 279 37 412 8 201z"/>
<path d="M977 1065 c-26 -201 -57 -495 -56 -525 1 -28 3 -23 10 20 18 126 60
521 57 542 -2 13 -7 -4 -11 -37z"/>
<path d="M1022 1025 c-20 -158 -62 -548 -61 -570 2 -36 17 75 49 353 17 150
30 283 28 295 -2 12 -9 -23 -16 -78z"/>
<path d="M1717 1065 c-3 -33 -18 -157 -32 -275 -24 -205 -33 -358 -14 -230 18
126 60 521 57 542 -2 13 -7 -4 -11 -37z"/>
<path d="M1235 1004 c65 -125 111 -195 73 -109 -32 71 -85 166 -109 195 -11
14 5 -25 36 -86z"/>
<path d="M1621 1094 c0 -12 -12 -113 -25 -225 -26 -219 -43 -421 -26 -319 18
113 61 521 57 542 -4 22 -4 22 -6 2z"/>
<path d="M2180 1100 c0 -6 33 -10 78 -10 92 0 111 -13 123 -83 l6 -42 2 48 c1
39 -4 53 -24 72 -22 22 -32 25 -105 25 -47 0 -80 -4 -80 -10z"/>
<path d="M1001 1070 c0 -8 -15 -134 -31 -280 -28 -246 -39 -403 -19 -265 23
154 60 508 56 533 -2 15 -5 20 -6 12z"/>
<path d="M2175 1070 c-21 -5 -2 -8 61 -9 98 -1 108 -6 124 -58 7 -25 8 -26 9
-5 1 25 -16 63 -33 74 -14 10 -121 8 -161 -2z"/>
<path d="M512 1061 c53 -3 100 -10 105 -14 4 -5 13 -23 20 -40 11 -30 12 -30
12 -7 1 14 -6 36 -15 48 -14 20 -22 22 -117 20 l-102 -1 97 -6z"/>
<path d="M1515 1022 c-35 -40 -113 -142 -149 -192 -35 -49 46 38 93 100 106
140 130 180 56 92z"/>
<path d="M1741 1060 c0 -8 -14 -132 -31 -275 -28 -241 -39 -394 -19 -265 20
135 60 511 56 532 -2 13 -5 16 -6 8z"/>
<path d="M1180 1056 c0 -13 98 -198 121 -226 11 -14 0 16 -25 65 -48 96 -95
176 -96 161z"/>
<path d="M1225 905 c30 -60 65 -121 76 -135 11 -14 -5 25 -36 85 -30 61 -65
121 -76 135 -11 14 5 -24 36 -85z"/>
<path d="M1493 953 c-48 -56 -120 -152 -138 -183 -5 -9 0 -8 13 4 29 26 28 13
-4 -32 -24 -34 -23 -33 16 8 39 41 134 163 155 200 21 35 -27 -15 -81 -86 -31
-41 -59 -72 -62 -70 -2 3 13 27 35 53 50 61 125 163 119 163 -2 0 -26 -26 -53
-57z"/>
<path d="M782 960 c0 -14 2 -19 5 -12 2 6 2 18 0 25 -3 6 -5 1 -5 -13z"/>
<path d="M2501 964 c0 -11 3 -14 6 -6 3 7 2 16 -1 19 -3 4 -6 -2 -5 -13z"/>
<path d="M1170 956 c0 -13 98 -198 121 -226 11 -14 0 16 -25 65 -48 96 -95
176 -96 161z"/>
<path d="M801 934 c0 -11 3 -14 6 -6 3 7 2 16 -1 19 -3 4 -6 -2 -5 -13z"/>
<path d="M2255 911 c17 -5 54 -9 83 -10 62 -1 84 -11 135 -60 108 -103 83
-334 -49 -450 -57 -50 -91 -61 -206 -62 l-103 -2 75 -8 c133 -15 197 6 273 91
63 69 90 144 91 245 1 70 -3 88 -29 140 -21 41 -43 69 -73 89 -38 27 -51 30
-135 32 -62 2 -82 0 -62 -5z"/>
<path d="M560 901 c121 -6 155 -17 196 -63 38 -41 57 -91 62 -164 9 -134 -53
-259 -157 -317 -46 -26 -67 -31 -165 -38 l-111 -7 120 1 c112 2 123 4 167 30
115 68 187 240 158 380 -14 69 -56 133 -106 164 -36 21 -49 23 -159 21 l-120
-2 115 -5z"/>
<path d="M1215 805 c30 -60 65 -121 76 -135 11 -14 -5 25 -36 85 -30 61 -65
121 -76 135 -11 14 5 -24 36 -85z"/>
<path d="M1460 830 c-49 -60 -134 -180 -127 -180 5 0 136 164 166 208 36 51
16 37 -39 -28z"/>
<path d="M2250 881 c-18 -7 -4 -9 53 -10 82 -1 117 -13 153 -53 43 -47 58 -90
58 -168 0 -89 -25 -154 -82 -213 -59 -61 -85 -71 -207 -78 l-110 -6 111 -1
c99 -2 116 1 155 21 54 29 100 87 129 164 45 120 10 271 -76 324 -39 24 -141
35 -184 20z"/>
<path d="M550 871 c82 -5 124 -12 148 -24 40 -22 82 -87 88 -136 4 -36 4 -36
-5 -4 -13 49 -44 96 -81 120 -30 21 -44 23 -149 21 l-116 -1 110 -6 c114 -7
135 -13 172 -53 78 -84 66 -253 -24 -340 -52 -49 -73 -58 -140 -59 -32 0 -67
-4 -78 -9 -30 -13 91 -12 138 1 52 14 115 73 143 134 13 28 24 44 24 37 0 -19
-28 -71 -61 -113 -42 -53 -99 -77 -204 -86 l-90 -8 77 -3 c101 -4 145 9 201
58 119 105 143 310 50 421 -44 52 -70 59 -200 57 l-118 -2 115 -5z m237 -293
c-3 -7 -5 -2 -5 12 0 14 2 19 5 13 2 -7 2 -19 0 -25z"/>
<path d="M2255 850 c-59 -7 -59 -7 29 -8 70 -2 96 -6 122 -23 53 -32 76 -80
80 -162 l3 -72 -9 74 c-6 58 -14 80 -38 110 -40 50 -78 60 -187 51 l-90 -7 98
-2 c66 -1 108 -6 127 -16 31 -16 70 -80 70 -112 -1 -10 -7 0 -15 22 -8 22 -26
50 -40 63 -24 20 -35 22 -138 20 l-112 -2 105 -5 c58 -3 115 -11 126 -18 28
-16 54 -83 53 -131 -1 -25 -3 -29 -6 -12 -2 14 -6 39 -8 56 -3 17 -16 43 -30
58 -23 25 -27 26 -137 24 l-113 -2 107 -5 c118 -7 138 -16 158 -77 19 -57 -8
-139 -57 -171 -20 -13 -56 -20 -133 -24 l-105 -6 105 -1 c125 -2 159 12 190
81 11 23 20 35 20 26 0 -25 -42 -81 -79 -106 -29 -20 -48 -23 -140 -25 l-106
-2 95 -4 c52 -1 109 0 127 3 42 8 100 69 118 125 7 25 14 37 14 27 2 -46 -54
-131 -104 -160 -11 -6 -69 -14 -130 -18 l-110 -6 108 -1 c118 -2 142 5 189 55
15 15 36 48 48 73 16 34 20 38 15 15 -9 -42 -65 -116 -105 -140 -28 -16 -59
-21 -160 -26 l-125 -5 123 -2 c104 -2 129 1 161 18 117 59 173 240 113 362
-39 79 -101 103 -227 88z"/>
<path d="M530 811 c88 -5 123 -10 143 -24 33 -22 67 -74 66 -102 -1 -16 -2
-15 -9 6 -12 40 -38 75 -66 87 -14 7 -68 11 -127 10 l-102 -1 100 -7 c55 -3
110 -12 122 -18 26 -15 53 -51 53 -72 0 -8 -9 -1 -20 17 -27 45 -48 53 -142
52 l-83 -1 93 -12 c80 -10 96 -15 112 -36 30 -40 34 -92 12 -142 -33 -74 -49
-82 -175 -89 l-112 -5 114 -2 113 -2 39 39 c45 45 50 44 13 -4 -34 -45 -44
-48 -159 -55 l-100 -6 101 -2 c90 -2 105 0 135 21 18 12 44 40 56 62 25 44 32
41 9 -4 -19 -35 -79 -89 -109 -96 -12 -3 -56 -6 -97 -8 -73 -3 -72 -3 18 -5
108 -2 129 6 179 71 56 75 69 178 32 255 -35 71 -63 82 -204 80 l-120 -2 115
-5z m180 -231 l-11 -25 6 25 c2 14 6 41 7 60 l1 35 4 -35 c2 -20 -1 -47 -7
-60z m27 -2 c-3 -8 -6 -5 -6 6 -1 11 2 17 5 13 3 -3 4 -12 1 -19z"/>
<path d="M1892 781 c-19 -12 -20 -137 -1 -176 14 -28 13 -32 -13 -70 -38 -54
-72 -185 -53 -204 23 -23 43 -5 54 51 7 29 21 72 33 96 30 62 43 41 43 -68 1
-92 9 -116 35 -100 19 12 21 184 2 218 -12 21 -10 27 17 57 37 43 69 148 52
173 -18 29 -44 8 -56 -43 -13 -56 -27 -86 -49 -104 -13 -11 -16 -7 -25 26 -6
22 -10 63 -8 92 2 54 -6 68 -31 52z"/>
<path d="M166 768 c-15 -47 -15 -94 0 -148 15 -54 15 -62 2 -78 -26 -29 -47
-78 -62 -140 -15 -64 -9 -86 20 -80 14 2 24 24 40 82 22 77 46 117 61 102 5
-4 8 -51 8 -104 0 -90 1 -97 20 -97 14 0 21 10 28 40 10 45 2 146 -13 175 -8
14 -3 29 24 69 43 63 64 148 42 169 -21 21 -42 2 -51 -46 -7 -40 -44 -112 -56
-112 -13 0 -28 72 -26 125 2 40 -1 50 -16 53 -9 2 -19 -2 -21 -10z"/>
<path d="M520 720 c-11 -7 3 -10 47 -10 78 0 103 -21 103 -87 0 -33 -7 -50
-29 -75 l-29 -33 -124 -6 -123 -5 128 -2 c123 -2 129 -1 152 22 52 52 53 155
2 191 -24 17 -104 20 -127 5z"/>
<path d="M2248 721 c95 -6 106 -8 124 -31 28 -34 21 -112 -14 -146 -21 -22
-37 -25 -133 -33 l-110 -8 107 -2 c101 -1 108 0 137 25 55 46 64 133 19 182
-20 20 -29 22 -127 20 l-106 -2 103 -5z"/>
<path d="M500 690 c0 -6 26 -10 59 -10 67 0 85 -13 85 -65 0 -60 -23 -74 -133
-78 l-96 -3 98 -2 c94 -2 99 -1 122 24 32 34 34 95 5 124 -16 16 -33 20 -80
20 -33 0 -60 -4 -60 -10z"/>
<path d="M2145 694 c11 -2 60 -6 108 -9 78 -6 89 -9 104 -31 14 -22 14 -29 1
-62 -13 -36 -15 -37 -88 -48 l-75 -12 63 -1 c58 -1 66 2 93 28 22 23 29 39 29
69 0 64 -18 72 -146 71 -60 -1 -100 -3 -89 -5z"/>
<path d="M2890 540 c8 -5 58 -10 110 -10 52 0 102 5 110 10 10 7 -26 10 -110
10 -84 0 -120 -3 -110 -10z"/>
<path d="M2875 510 c-4 -6 38 -10 120 -10 82 0 124 4 120 10 -4 6 -55 10 -120
10 -65 0 -116 -4 -120 -10z"/>
<path d="M912 470 c0 -19 2 -27 5 -17 2 9 2 25 0 35 -3 9 -5 1 -5 -18z"/>
<path d="M1603 465 c0 -22 2 -30 4 -17 2 12 2 30 0 40 -3 9 -5 -1 -4 -23z"/>
<path d="M1652 470 c0 -19 2 -27 5 -17 2 9 2 25 0 35 -3 9 -5 1 -5 -18z"/>
<path d="M1553 455 c0 -22 2 -30 4 -17 2 12 2 30 0 40 -3 9 -5 -1 -4 -23z"/>
<path d="M2880 480 c-15 -5 28 -8 110 -8 82 0 125 3 110 8 -14 4 -63 8 -110 8
-47 0 -96 -4 -110 -8z"/>
<path d="M1502 450 c0 -19 2 -27 5 -17 2 9 2 25 0 35 -3 9 -5 1 -5 -18z"/>
<path d="M1082 440 c0 -19 2 -27 5 -17 2 9 2 25 0 35 -3 9 -5 1 -5 -18z"/>
<path d="M2642 440 c0 -19 2 -27 5 -17 2 9 2 25 0 35 -3 9 -5 1 -5 -18z"/>
<path d="M2692 440 c0 -19 2 -27 5 -17 2 9 2 25 0 35 -3 9 -5 1 -5 -18z"/>
<path d="M2742 440 c0 -19 2 -27 5 -17 2 9 2 25 0 35 -3 9 -5 1 -5 -18z"/>
<path d="M1032 435 c0 -16 2 -22 5 -12 2 9 2 23 0 30 -3 6 -5 -1 -5 -18z"/>
<path d="M2792 435 c0 -16 2 -22 5 -12 2 9 2 23 0 30 -3 6 -5 -1 -5 -18z"/>
<path d="M2880 450 c-28 -4 14 -7 110 -7 112 0 140 2 100 7 -67 10 -149 9
-210 0z"/>
<path d="M932 425 c0 -16 2 -22 5 -12 2 9 2 23 0 30 -3 6 -5 -1 -5 -18z"/>
<path d="M982 430 c0 -14 2 -19 5 -12 2 6 2 18 0 25 -3 6 -5 1 -5 -13z"/>
<path d="M1672 430 c0 -14 2 -19 5 -12 2 6 2 18 0 25 -3 6 -5 1 -5 -13z"/>
<path d="M1571 424 c0 -11 3 -14 6 -6 3 7 2 16 -1 19 -3 4 -6 -2 -5 -13z"/>
<path d="M1622 420 c0 -14 2 -19 5 -12 2 6 2 18 0 25 -3 6 -5 1 -5 -13z"/>
<path d="M2895 420 c-45 -5 -23 -7 89 -8 82 -1 147 0 145 2 -9 8 -178 13 -234
6z"/>
<path d="M2811 394 c0 -11 3 -14 6 -6 3 7 2 16 -1 19 -3 4 -6 -2 -5 -13z"/>
<path d="M2903 383 c43 -2 110 -2 150 0 40 1 5 3 -78 3 -82 0 -115 -2 -72 -3z"/>
<path d="M2865 350 c41 -10 171 -11 220 -1 28 6 -3 9 -105 9 -86 0 -133 -3
-115 -8z"/>
<path d="M2855 320 c8 -12 202 -12 230 0 13 5 -27 9 -108 9 -83 1 -126 -3
-122 -9z"/>
<path d="M428 213 c-2 -10 -1 -34 3 -53 l6 -35 2 33 c1 39 18 43 23 5 2 -22 8
-28 28 -28 21 0 25 5 25 30 0 27 -3 30 -33 31 -39 1 -52 12 -32 24 13 8 13 10
-1 10 -9 0 -18 -8 -21 -17z m82 -48 c0 -25 -23 -35 -35 -15 -10 16 2 40 20 40
9 0 15 -9 15 -25z"/>
<path d="M1230 212 c0 -13 -7 -18 -22 -18 -19 1 -23 -4 -23 -29 0 -26 4 -30
28 -31 26 -1 27 1 27 47 0 27 -2 49 -5 49 -3 0 -5 -8 -5 -18z m-5 -47 c0 -11
-8 -21 -17 -23 -14 -3 -18 3 -18 23 0 20 4 26 18 23 9 -2 17 -12 17 -23z"/>
<path d="M1542 180 c0 -41 2 -47 7 -25 3 17 13 30 21 30 8 0 18 -13 22 -30 6
-29 6 -29 5 5 -2 28 -6 35 -22 35 -11 0 -23 9 -27 20 -3 11 -6 -4 -6 -35z"/>
<path d="M2110 180 c0 -27 5 -50 10 -50 6 0 10 23 10 50 0 28 -4 50 -10 50 -5
0 -10 -22 -10 -50z"/>
<path d="M3051 184 c-1 -49 0 -51 27 -50 23 1 27 5 27 31 0 23 -4 30 -20 30
-11 0 -23 9 -27 20 -3 12 -6 0 -7 -31z m49 -19 c0 -25 -23 -35 -35 -15 -10 16
2 40 20 40 9 0 15 -9 15 -25z"/>
<path d="M110 175 c0 -45 1 -46 28 -43 24 3 27 7 27 43 0 36 -3 40 -27 43 -27
3 -28 2 -28 -43z m43 20 c1 -5 -6 -11 -15 -13 -11 -2 -18 3 -18 13 0 17 30 18
33 0z m7 -40 c0 -8 -9 -15 -20 -15 -11 0 -20 7 -20 15 0 8 9 15 20 15 11 0 20
-7 20 -15z"/>
<path d="M792 204 c-7 -8 -8 -14 -2 -14 5 0 10 -13 10 -30 0 -16 3 -30 8 -30
7 0 8 78 0 85 -1 1 -9 -3 -16 -11z"/>
<path d="M1291 173 l2 -48 6 40 7 40 14 -37 c8 -21 17 -38 20 -38 3 0 12 17
20 38 l14 37 7 -40 6 -40 2 48 c1 53 -15 63 -30 17 -6 -16 -15 -30 -19 -30 -4
0 -13 14 -19 30 -15 46 -31 36 -30 -17z"/>
<path d="M1492 204 c-7 -8 -8 -14 -2 -14 5 0 10 -13 10 -30 0 -16 3 -30 8 -30
7 0 8 78 0 85 -1 1 -9 -3 -16 -11z"/>
<path d="M1892 204 c-7 -8 -8 -14 -2 -14 5 0 10 -13 10 -30 0 -16 3 -30 8 -30
7 0 8 78 0 85 -1 1 -9 -3 -16 -11z"/>
<path d="M2180 175 c0 -45 1 -46 28 -43 24 3 27 7 27 43 0 36 -3 40 -27 43
-27 3 -28 2 -28 -43z m43 20 c1 -5 -6 -11 -15 -13 -11 -2 -18 3 -18 13 0 17
30 18 33 0z m7 -40 c0 -8 -9 -15 -20 -15 -11 0 -20 7 -20 15 0 8 9 15 20 15
11 0 20 -7 20 -15z"/>
<path d="M2922 178 c-2 -46 -1 -48 26 -47 22 1 23 2 5 6 -18 3 -23 13 -26 46
l-4 42 -1 -47z"/>
<path d="M190 165 c0 -19 5 -35 10 -35 6 0 10 16 10 35 0 19 -4 35 -10 35 -5
0 -10 -16 -10 -35z"/>
<path d="M234 186 c-11 -29 0 -51 26 -51 21 0 25 5 25 30 0 24 -5 31 -23 33
-13 2 -24 -3 -28 -12z m46 -21 c0 -25 -23 -35 -35 -15 -10 16 2 40 20 40 9 0
15 -9 15 -25z"/>
<path d="M310 165 c0 -19 5 -35 10 -35 6 0 10 16 10 35 0 19 -4 35 -10 35 -5
0 -10 -16 -10 -35z"/>
<path d="M341 161 c1 -36 1 -36 8 -6 3 17 13 30 21 30 8 0 18 -13 22 -30 6
-29 6 -29 5 5 -2 31 -5 35 -29 36 -26 1 -28 -2 -27 -35z"/>
<path d="M541 160 c1 -27 3 -29 6 -10 2 14 11 30 20 37 13 10 13 12 -6 10 -17
-1 -21 -7 -20 -37z"/>
<path d="M601 161 c1 -36 1 -36 8 -6 3 17 13 30 21 30 8 0 18 -13 21 -30 l7
-30 1 33 c1 21 6 32 15 32 9 0 17 -13 19 -32 l5 -33 -2 35 c-1 35 -1 35 -48
36 l-48 1 1 -36z"/>
<path d="M726 191 c-3 -5 3 -7 14 -4 11 3 20 1 20 -5 0 -5 -9 -12 -20 -15 -30
-8 -26 -37 5 -35 22 2 26 7 23 33 -3 30 -30 47 -42 26z m29 -41 c-3 -5 -10
-10 -16 -10 -5 0 -9 5 -9 10 0 6 7 10 16 10 8 0 12 -4 9 -10z"/>
<path d="M840 165 c0 -19 5 -35 10 -35 6 0 10 16 10 35 0 19 -4 35 -10 35 -5
0 -10 -16 -10 -35z"/>
<path d="M877 193 c-4 -3 -7 -17 -7 -30 0 -26 26 -41 42 -25 8 8 5 9 -11 5
-18 -4 -21 -1 -21 22 0 22 4 26 20 22 11 -3 18 -1 14 4 -6 11 -28 12 -37 2z"/>
<path d="M944 188 c-4 -6 0 -16 9 -23 22 -16 21 -22 0 -28 -14 -4 -12 -5 5 -6
25 -1 31 26 7 35 -20 8 -19 21 3 27 15 4 15 5 0 6 -9 0 -20 -4 -24 -11z"/>
<path d="M1036 191 c-3 -5 3 -7 14 -4 11 3 20 1 20 -5 0 -5 -9 -12 -20 -15
-30 -8 -26 -37 5 -35 22 2 26 7 23 33 -3 30 -30 47 -42 26z m29 -41 c-3 -5
-10 -10 -16 -10 -5 0 -9 5 -9 10 0 6 7 10 16 10 8 0 12 -4 9 -10z"/>
<path d="M1101 161 c1 -36 1 -36 8 -6 3 17 13 30 21 30 8 0 18 -13 22 -30 6
-29 6 -29 5 5 -2 31 -5 35 -29 36 -26 1 -28 -2 -27 -35z"/>
<path d="M1426 191 c-3 -5 3 -7 14 -4 11 3 20 1 20 -5 0 -5 -9 -12 -20 -15
-30 -8 -26 -37 5 -35 22 2 26 7 23 33 -3 30 -30 47 -42 26z m29 -41 c-3 -5
-10 -10 -16 -10 -5 0 -9 5 -9 10 0 6 7 10 16 10 8 0 12 -4 9 -10z"/>
<path d="M1624 186 c-11 -30 0 -51 29 -52 25 -1 25 -1 2 3 -33 6 -32 23 1 23
19 0 25 5 22 18 -4 22 -46 29 -54 8z m46 -6 c0 -5 -9 -10 -21 -10 -11 0 -17 5
-14 10 3 6 13 10 21 10 8 0 14 -4 14 -10z"/>
<path d="M1701 161 c1 -36 1 -36 8 -6 3 17 13 30 21 30 8 0 18 -13 21 -30 l7
-30 1 33 c1 21 6 32 15 32 9 0 17 -13 19 -32 l5 -33 -2 35 c-1 35 -1 35 -48
36 l-48 1 1 -36z"/>
<path d="M1826 191 c-3 -5 3 -7 14 -4 11 3 20 1 20 -5 0 -5 -9 -12 -20 -15
-30 -8 -26 -37 5 -35 22 2 26 7 23 33 -3 30 -30 47 -42 26z m29 -41 c-3 -5
-10 -10 -16 -10 -5 0 -9 5 -9 10 0 6 7 10 16 10 8 0 12 -4 9 -10z"/>
<path d="M1940 165 c0 -19 5 -35 10 -35 6 0 10 16 10 35 0 19 -4 35 -10 35 -5
0 -10 -16 -10 -35z"/>
<path d="M1987 193 c-4 -3 -7 -17 -7 -30 0 -26 26 -41 42 -25 8 8 5 9 -11 5
-18 -4 -21 -1 -21 22 0 22 4 26 20 22 11 -3 18 -1 14 4 -6 11 -28 12 -37 2z"/>
<path d="M2046 191 c-3 -5 3 -7 14 -4 11 3 20 1 20 -5 0 -5 -9 -12 -20 -15
-30 -8 -26 -37 5 -35 22 2 26 7 23 33 -3 30 -30 47 -42 26z m29 -41 c-3 -5
-10 -10 -16 -10 -5 0 -9 5 -9 10 0 6 7 10 16 10 8 0 12 -4 9 -10z"/>
<path d="M2260 165 c0 -19 5 -35 10 -35 6 0 10 16 10 35 0 19 -4 35 -10 35 -5
0 -10 -16 -10 -35z"/>
<path d="M2304 186 c-11 -29 0 -51 26 -51 21 0 25 5 25 30 0 24 -5 31 -23 33
-13 2 -24 -3 -28 -12z m46 -21 c0 -25 -23 -35 -35 -15 -10 16 2 40 20 40 9 0
15 -9 15 -25z"/>
<path d="M2374 188 c-4 -6 0 -16 9 -23 22 -16 21 -22 0 -28 -14 -4 -12 -5 5
-6 25 -1 31 26 7 35 -20 8 -19 21 3 27 15 4 15 5 0 6 -9 0 -20 -4 -24 -11z"/>
<path d="M2437 193 c-4 -3 -7 -17 -7 -30 0 -26 26 -41 42 -25 8 8 5 9 -11 5
-18 -4 -21 -1 -21 22 0 22 4 26 20 22 11 -3 18 -1 14 4 -6 11 -28 12 -37 2z"/>
<path d="M2500 165 c0 -19 5 -35 10 -35 6 0 10 16 10 35 0 19 -4 35 -10 35 -5
0 -10 -16 -10 -35z"/>
<path d="M2534 186 c-11 -30 0 -51 29 -52 25 -1 25 -1 2 3 -33 6 -32 23 1 23
19 0 25 5 22 18 -4 22 -46 29 -54 8z m46 -6 c0 -5 -9 -10 -21 -10 -11 0 -17 5
-14 10 3 6 13 10 21 10 8 0 14 -4 14 -10z"/>
<path d="M2611 161 c1 -36 1 -36 8 -6 3 17 13 30 21 30 8 0 18 -13 22 -30 6
-29 6 -29 5 5 -2 31 -5 35 -29 36 -26 1 -28 -2 -27 -35z"/>
<path d="M2697 193 c-4 -3 -7 -17 -7 -30 0 -26 26 -41 42 -25 8 8 5 9 -11 5
-18 -4 -21 -1 -21 22 0 22 4 26 20 22 11 -3 18 -1 14 4 -6 11 -28 12 -37 2z"/>
<path d="M2754 186 c-11 -30 0 -51 29 -52 25 -1 25 -1 2 3 -33 6 -32 23 1 23
19 0 25 5 22 18 -4 22 -46 29 -54 8z m46 -6 c0 -5 -9 -10 -21 -10 -11 0 -17 5
-14 10 3 6 13 10 21 10 8 0 14 -4 14 -10z"/>
<path d="M2824 188 c-4 -6 0 -16 9 -23 22 -16 21 -22 0 -28 -14 -4 -12 -5 5
-6 25 -1 31 26 7 35 -20 8 -19 21 3 27 15 4 15 5 0 6 -9 0 -20 -4 -24 -11z"/>
<path d="M2986 191 c-3 -5 3 -7 14 -4 11 3 20 1 20 -5 0 -5 -9 -12 -20 -15
-30 -8 -26 -37 5 -35 22 2 26 7 23 33 -3 30 -30 47 -42 26z m29 -41 c-3 -5
-10 -10 -16 -10 -5 0 -9 5 -9 10 0 6 7 10 16 10 8 0 12 -4 9 -10z"/>
</g>
</svg>
