<?xml version="1.0" standalone="no"?>
<!DOCTYPE svg PUBLIC "-//W3C//DTD SVG 20010904//EN"
 "http://www.w3.org/TR/2001/REC-SVG-20010904/DTD/svg10.dtd">
<svg version="1.0" xmlns="http://www.w3.org/2000/svg"
 width="280.000000pt" height="280.000000pt" viewBox="0 0 280.000000 280.000000"
 preserveAspectRatio="xMidYMid meet">

<g transform="translate(0.000000,280.000000) scale(0.100000,-0.100000)"
fill="#000000" stroke="none">
<path d="M1090 2079 c-52 -14 -130 -51 -125 -59 3 -4 -3 -7 -13 -6 -9 0 -16
-5 -14 -12 1 -8 -2 -11 -8 -7 -13 8 -42 -14 -35 -25 3 -4 -1 -7 -9 -6 -7 0
-35 -17 -61 -39 l-48 -40 -146 0 c-134 0 -151 -2 -206 -26 -34 -14 -59 -31
-57 -38 1 -7 -2 -10 -8 -6 -15 9 -33 -4 -74 -54 -20 -24 -35 -50 -32 -58 3 -8
1 -11 -4 -8 -16 10 -12 -73 5 -105 9 -17 20 -30 26 -30 6 0 7 5 3 12 -4 7 -3
8 5 4 6 -4 9 -12 6 -17 -11 -16 48 -31 101 -26 51 5 112 31 167 69 24 17 26
23 15 36 -10 14 -10 15 2 5 16 -15 54 2 44 19 -4 6 -3 8 3 5 6 -4 17 1 24 10
12 14 12 16 0 8 -10 -6 -12 -4 -7 4 5 7 11 10 14 7 3 -4 16 4 29 16 19 17 21
24 10 37 -10 14 -10 14 4 3 13 -10 18 -10 28 1 6 8 9 17 6 20 -3 4 -2 5 2 2 3
-3 17 5 30 17 19 17 21 24 10 37 -10 14 -10 14 4 3 13 -10 18 -10 28 1 6 8 7
18 3 23 -4 5 -3 6 2 1 13 -10 57 33 49 47 -3 6 -3 8 2 4 4 -4 29 8 54 26 67
49 160 94 209 102 23 4 42 10 42 14 0 8 -34 41 -41 39 -2 0 -20 -5 -39 -10z
m-145 -109 c-3 -5 -16 -15 -28 -21 -19 -9 -19 -8 3 10 28 23 34 26 25 11z
m-247 -139 l23 -6 -28 -26 c-23 -22 -40 -27 -103 -32 -77 -5 -164 -32 -154
-48 3 -5 -1 -7 -8 -4 -7 2 -21 -2 -31 -9 -15 -12 -16 -18 -7 -35 6 -12 15 -21
21 -21 6 0 7 5 3 12 -4 6 -3 8 4 4 6 -3 26 3 45 14 19 11 59 23 88 26 l54 6
-33 -29 c-24 -21 -30 -31 -22 -41 7 -8 7 -9 -1 -3 -15 12 -41 2 -32 -13 3 -6
3 -8 -1 -4 -4 3 -26 -2 -49 -13 -49 -22 -90 -24 -106 -6 -8 10 -7 14 4 14 8 0
12 -5 9 -11 -3 -6 2 -2 10 8 19 24 19 26 1 50 -15 20 -15 20 -30 0 -9 -10 -20
-30 -26 -44 -10 -25 -11 -25 -25 -5 -20 26 -11 69 24 114 15 20 26 39 25 43
-2 4 4 5 12 2 8 -4 15 -1 15 5 0 6 6 10 13 9 6 -2 11 2 10 7 -1 6 6 11 15 12
9 0 42 7 72 16 56 16 166 20 208 8z m53 -18 c13 -16 12 -17 -3 -4 -10 7 -18
15 -18 17 0 8 8 3 21 -13z m-415 -44 c3 -6 1 -16 -5 -22 -9 -9 -10 -7 -5 7 6
16 4 18 -10 13 -10 -4 -15 -3 -11 3 8 13 22 13 31 -1z m156 -46 c-6 -2 -9 -10
-6 -15 4 -7 2 -8 -5 -4 -13 9 -5 26 12 25 9 0 8 -2 -1 -6z m109 -56 c-10 -9
-11 -8 -5 6 3 10 9 15 12 12 3 -3 0 -11 -7 -18z m-106 -87 c3 -6 -1 -7 -9 -4
-18 7 -21 14 -7 14 6 0 13 -4 16 -10z"/>
<path d="M1220 1873 c-88 -13 -162 -66 -356 -253 -175 -169 -237 -212 -350
-245 l-74 -21 24 -23 24 -22 75 25 c84 28 153 70 240 144 57 49 59 49 100 40
62 -14 233 -3 289 19 149 59 231 180 184 271 -24 46 -91 74 -156 65z m30 -59
c0 -3 -9 -19 -20 -34 -24 -33 -107 -76 -165 -85 l-40 -6 40 36 c58 53 185 114
185 89z m80 -64 c0 -61 -82 -135 -184 -165 -53 -16 -221 -21 -230 -6 -3 4 5
18 18 30 18 17 38 23 97 26 122 6 203 46 256 126 28 42 43 38 43 -11z"/>
<path d="M1260 1325 c-14 -8 -19 -14 -12 -15 15 0 18 -250 2 -250 -5 0 -10 -4
-10 -8 0 -4 17 -6 38 -3 20 2 31 6 25 8 -9 3 -13 26 -13 64 0 53 2 61 25 71
39 18 55 -3 55 -72 0 -38 -4 -60 -12 -63 -7 -2 4 -6 25 -8 20 -3 37 -1 37 3 0
4 -4 8 -10 8 -6 0 -10 29 -10 68 0 40 -5 73 -12 80 -16 16 -49 15 -75 -3 -22
-16 -22 -15 -25 59 l-3 74 -25 -13z"/>
<path d="M1754 1309 c-10 -17 13 -36 27 -22 12 12 4 33 -11 33 -5 0 -12 -5
-16 -11z"/>
<path d="M2016 1313 c-12 -12 -6 -33 9 -33 8 0 15 6 15 14 0 17 -14 28 -24 19z"/>
<path d="M1050 1303 c26 -10 30 -26 29 -117 -2 -106 -6 -124 -28 -129 -9 -3 9
-5 39 -6 42 0 51 2 38 10 -16 9 -18 26 -18 124 0 114 0 115 23 115 32 0 57
-30 57 -67 0 -29 -18 -53 -50 -67 -8 -3 1 -4 20 -1 68 10 94 84 44 124 -22 17
-40 21 -98 20 -39 0 -64 -3 -56 -6z"/>
<path d="M1423 1208 c-2 -5 0 -8 6 -8 5 0 22 -31 37 -70 22 -57 25 -76 18
-102 -6 -18 -16 -33 -24 -33 -8 0 -16 -8 -18 -18 -3 -13 1 -18 14 -15 11 2 34
42 66 118 27 63 53 117 59 118 19 7 8 20 -16 20 -20 0 -24 -4 -20 -18 3 -10
-2 -37 -12 -61 l-17 -43 -23 49 c-12 28 -18 52 -13 53 6 2 10 7 10 11 0 10
-60 9 -67 -1z"/>
<path d="M1622 1208 c-25 -25 -14 -63 26 -89 41 -27 47 -46 19 -63 -15 -9 -23
-6 -43 17 -25 29 -32 21 -14 -14 14 -25 60 -25 90 -1 32 26 21 62 -27 87 -44
24 -54 50 -22 60 17 6 27 2 42 -16 l19 -24 -3 25 c-3 21 -10 26 -39 28 -19 2
-41 -3 -48 -10z"/>
<path d="M1758 1213 c-20 -5 -23 -18 -8 -28 6 -3 10 -33 10 -66 0 -48 -3 -59
-17 -59 -9 0 -13 -3 -10 -6 9 -10 77 -11 77 -1 0 4 -4 7 -10 7 -6 0 -10 33
-10 80 0 44 -3 79 -7 79 -5 -1 -16 -3 -25 -6z"/>
<path d="M1855 1196 c-85 -85 7 -204 100 -131 19 15 19 15 -7 9 -44 -10 -74 3
-88 36 -16 39 -6 78 25 92 20 9 28 8 44 -6 23 -21 49 -12 30 10 -19 23 -77 17
-104 -10z"/>
<path d="M2006 1211 c-14 -5 -16 -10 -8 -15 17 -10 16 -133 0 -139 -7 -3 5 -5
27 -5 22 0 34 2 28 5 -9 3 -13 30 -13 84 0 43 -3 79 -7 78 -5 0 -17 -4 -27 -8z"/>
<path d="M2113 1200 c-34 -20 -43 -40 -19 -40 7 0 16 9 19 20 6 22 36 27 55 8
22 -22 13 -44 -25 -57 -51 -18 -63 -29 -63 -57 0 -28 37 -42 69 -25 15 9 26 8
41 -1 15 -10 22 -10 32 0 9 9 9 12 0 12 -8 0 -12 22 -12 68 0 95 -27 115 -97
72z m67 -94 c0 -28 -22 -49 -47 -44 -26 5 -22 40 7 55 35 18 40 16 40 -11z"/>
<path d="M2264 1205 c-11 -8 -14 -15 -6 -15 17 0 17 -126 0 -133 -7 -3 5 -5
27 -5 22 0 34 2 28 5 -9 3 -13 26 -13 64 0 53 3 61 24 71 44 19 56 6 56 -66 0
-42 -4 -66 -12 -69 -7 -2 4 -6 25 -9 21 -2 40 0 43 4 3 4 -2 8 -10 8 -12 0
-16 16 -18 71 -4 85 -17 101 -70 81 -21 -8 -34 -9 -36 -2 -5 14 -15 13 -38 -5z"/>
<path d="M2467 1202 c-24 -26 -21 -48 9 -69 14 -10 35 -26 46 -37 18 -16 18
-20 5 -33 -19 -19 -51 -10 -65 20 -10 22 -11 21 -11 -5 -1 -21 5 -29 24 -34
57 -14 107 24 86 65 -6 10 -27 28 -46 40 -24 14 -35 27 -33 38 5 28 39 28 59
2 18 -24 19 -24 19 -3 0 37 -65 48 -93 16z"/>
<path d="M1714 995 c-11 -8 -14 -15 -6 -15 9 0 12 -32 12 -124 0 -90 -3 -126
-12 -129 -7 -3 7 -6 32 -6 35 0 41 2 28 10 -16 9 -18 27 -18 144 0 74 -4 135
-8 135 -5 0 -17 -7 -28 -15z"/>
<path d="M1800 985 c-15 -18 -10 -45 12 -59 14 -8 21 -7 35 8 10 10 12 16 6
12 -9 -5 -13 0 -13 14 0 14 4 19 13 14 8 -5 8 -2 -2 9 -17 21 -35 22 -51 2z
m33 -11 c-5 -13 -7 -13 -14 -2 -6 9 -9 6 -9 -10 0 -13 4 -21 9 -17 5 3 12 1
16 -5 3 -5 -1 -10 -10 -10 -8 0 -18 7 -21 15 -8 21 3 45 20 45 10 0 13 -6 9
-16z"/>
<path d="M684 975 c17 -13 18 -23 13 -114 -8 -112 -12 -128 -35 -134 -10 -3 8
-5 38 -5 42 -1 50 1 33 8 -22 9 -23 15 -23 102 1 109 5 107 66 -27 22 -47 42
-85 45 -85 3 0 28 48 55 108 l49 107 5 -85 c6 -100 4 -117 -19 -123 -9 -3 11
-5 44 -5 33 0 53 2 45 5 -26 10 -30 26 -30 135 0 91 3 108 18 117 14 9 11 10
-15 11 -32 0 -35 -4 -87 -107 l-54 -108 -51 108 c-50 104 -53 107 -84 107 -30
-1 -31 -2 -13 -15z"/>
<path d="M1218 898 c-18 -19 -22 -28 -12 -28 11 0 14 -16 14 -70 0 -56 3 -71
18 -78 17 -9 62 1 62 14 0 3 -6 4 -14 1 -24 -9 -36 15 -36 75 0 58 0 58 30 58
17 0 30 5 30 10 0 6 -13 10 -29 10 -20 0 -31 6 -33 18 -3 14 -7 13 -30 -10z"/>
<path d="M1567 878 c-20 -10 -37 -25 -37 -33 0 -22 21 -18 27 6 9 31 57 22 61
-12 3 -22 -2 -27 -37 -38 -23 -6 -46 -21 -52 -33 -10 -18 -8 -24 11 -40 20
-16 25 -16 56 -3 19 8 34 10 34 6 0 -14 26 -20 41 -10 12 8 12 10 -1 19 -10 6
-15 28 -16 68 0 32 -4 64 -7 69 -12 20 -44 20 -80 1z m53 -103 c0 -33 -36 -53
-57 -32 -18 17 -10 35 21 47 32 13 36 12 36 -15z"/>
<path d="M1018 878 c7 -7 12 -40 12 -80 0 -57 3 -69 20 -78 16 -9 28 -7 53 5
20 10 33 12 35 5 2 -5 16 -10 30 -9 15 0 21 3 15 6 -9 3 -13 30 -13 84 l0 79
-30 0 c-16 0 -30 -4 -30 -10 0 -5 7 -10 15 -10 13 0 15 -11 13 -57 -3 -50 -6
-59 -28 -70 -38 -19 -50 -1 -50 78 0 68 0 69 -27 69 -21 0 -24 -3 -15 -12z"/>
<path d="M1326 882 c7 -4 14 -38 17 -77 3 -38 6 -71 6 -72 1 -1 10 -7 21 -13
16 -9 28 -7 52 4 36 19 41 19 33 6 -4 -6 7 -10 24 -10 17 0 31 5 31 11 0 5 -4
8 -10 4 -5 -3 -10 26 -12 72 -3 77 -3 78 -30 81 -30 4 -38 -12 -13 -22 19 -7
21 -99 3 -113 -55 -43 -75 -17 -77 95 -1 39 -3 42 -28 42 -16 0 -23 -4 -17 -8z"/>
</g>
</svg>
