<?xml version="1.0" standalone="no"?>
<!DOCTYPE svg PUBLIC "-//W3C//DTD SVG 20010904//EN"
 "http://www.w3.org/TR/2001/REC-SVG-20010904/DTD/svg10.dtd">
<svg version="1.0" xmlns="http://www.w3.org/2000/svg"
 width="914.000000pt" height="514.000000pt" viewBox="0 0 914.000000 514.000000"
 preserveAspectRatio="xMidYMid meet">

<g transform="translate(0.000000,514.000000) scale(0.100000,-0.100000)"
fill="#000000" stroke="none">
<path d="M2440 5133 c-545 -31 -1068 -231 -1490 -569 -47 -38 -135 -118 -195
-179 -397 -396 -645 -891 -731 -1459 -19 -125 -27 -469 -14 -596 60 -567 283
-1069 662 -1487 309 -342 728 -604 1171 -732 112 -33 339 -81 381 -81 l26 0 0
448 0 449 -92 22 c-546 133 -1005 563 -1183 1107 -57 173 -78 310 -78 514 0
269 45 478 152 705 251 530 721 873 1311 955 77 11 329 14 390 5 219 -34 380
-81 545 -160 614 -294 994 -957 936 -1634 -34 -400 -188 -742 -460 -1024 -225
-232 -503 -396 -798 -468 l-93 -22 0 -459 0 -458 1285 0 1285 0 0 440 0 440
-470 0 c-258 0 -470 2 -470 5 0 3 31 44 69 93 157 199 310 472 396 706 48 130
108 371 131 521 23 149 26 532 6 670 -54 372 -168 704 -340 992 -458 765
-1260 1234 -2147 1256 -71 2 -155 2 -185 0z"/>
<path d="M7243 5120 c-679 -85 -1158 -454 -1337 -1030 -36 -119 -63 -248 -68
-335 l-3 -50 210 -16 c116 -10 248 -20 295 -23 47 -4 153 -12 236 -19 l152
-13 24 101 c74 296 271 496 553 561 112 26 311 24 418 -5 94 -25 216 -86 284
-144 104 -88 185 -216 214 -337 18 -77 16 -232 -5 -310 -20 -78 -91 -220 -154
-312 -92 -132 -252 -294 -1271 -1288 l-1030 -1005 0 -442 -1 -443 1690 0 1690
0 0 440 0 440 -1121 0 c-784 0 -1118 3 -1114 11 4 5 350 320 768 698 878 793
939 852 1133 1112 181 244 271 453 315 734 19 118 16 419 -5 535 -108 610
-530 997 -1222 1121 -94 17 -167 22 -349 25 -126 1 -262 -1 -302 -6z"/>
</g>
</svg>
